<svg xmlns="http://www.w3.org/2000/svg" xmlns:xlink="http://www.w3.org/1999/xlink" width="620" height="624.28" viewBox="0 0 620 624.28"><defs><style>.cls-1{fill:none;}.cls-2{clip-path:url(#clip-path);}</style><clipPath id="clip-path" transform="translate(-328 -192)"><rect class="cls-1" x="326" y="190" width="623" height="634"/></clipPath></defs><title>LOCO_C</title><g id="Layer_2" data-name="Layer 2"><g class="cls-2"><path d="M733.12,377.32a46.08,46.08,0,0,0,15,9.63,50.34,50.34,0,0,0,19,3.49A50.88,50.88,0,0,0,786.24,387a45.93,45.93,0,0,0,15-9.63,43.44,43.44,0,0,0,9.84-14.38,46.66,46.66,0,0,0,0-35.46,44,44,0,0,0-9.84-14.5,46.36,46.36,0,0,0-15-9.74,50.32,50.32,0,0,0-19.11-3.55,49.77,49.77,0,0,0-19,3.55,46.52,46.52,0,0,0-15,9.74,44,44,0,0,0-9.84,14.5,46.66,46.66,0,0,0,0,35.46A43.44,43.44,0,0,0,733.12,377.32Z" transform="translate(-328 -192)"/><path d="M808.84,580.79a46.19,46.19,0,0,0-15-9.74,50.13,50.13,0,0,0-19.11-3.56,49.59,49.59,0,0,0-19,3.56,46.35,46.35,0,0,0-15,9.74,43.9,43.9,0,0,0-9.84,14.49,46.68,46.68,0,0,0,0,35.47,43.55,43.55,0,0,0,9.84,14.38,45.89,45.89,0,0,0,15,9.62,50.14,50.14,0,0,0,19,3.5,50.69,50.69,0,0,0,19.11-3.5,45.74,45.74,0,0,0,15-9.62,43.55,43.55,0,0,0,9.84-14.38,46.68,46.68,0,0,0,0-35.47A43.9,43.9,0,0,0,808.84,580.79Z" transform="translate(-328 -192)"/><path d="M328,192V758.35H948V192Zm103,73a4.79,4.79,0,0,1,1.51-3.55,5.63,5.63,0,0,1,4.14-1.49h37.13a6.22,6.22,0,0,1,3.89,1.37,4.81,4.81,0,0,1,1.88,3.67V389.64h69a5.82,5.82,0,0,1,3.89,1.38,4.65,4.65,0,0,1,1.63,3.78v30.14a5.19,5.19,0,0,1-1.44,3.55,5.56,5.56,0,0,1-4.08,1.72h-112q-5.52,0-5.52-5ZM564.9,682.54a7.8,7.8,0,0,1-3.14,2.87,104.22,104.22,0,0,1-25.4,11.17,102.15,102.15,0,0,1-28.67,3.95,103.92,103.92,0,0,1-25.53-3.09,99.85,99.85,0,0,1-22.89-8.82,95.81,95.81,0,0,1-19.38-13.7,90.57,90.57,0,0,1-15-17.64,82,82,0,0,1-9.66-20.86,81.9,81.9,0,0,1,0-46.64,83.87,83.87,0,0,1,9.66-21,90.44,90.44,0,0,1,15-17.82,93.09,93.09,0,0,1,19.38-13.69,103.66,103.66,0,0,1,22.89-8.82,102.26,102.26,0,0,1,79.1,11.74,7.53,7.53,0,0,1,3.13,3c.67,1.22.55,2.68-.37,4.36l-21.2,27.5a4.88,4.88,0,0,1-3,2.23,5.94,5.94,0,0,1-3.83-1,49.18,49.18,0,0,0-13.54-6.53,52.74,52.74,0,0,0-15.69-2.3,49.4,49.4,0,0,0-18.94,3.56,45.75,45.75,0,0,0-14.93,9.74,45.51,45.51,0,0,0-9.78,49.67,44.05,44.05,0,0,0,9.78,14.32,46.27,46.27,0,0,0,14.93,9.69A49.4,49.4,0,0,0,506.81,658a52.66,52.66,0,0,0,15.81-2.35,49.88,49.88,0,0,0,13.67-6.59,6.22,6.22,0,0,1,3.77-1,5.14,5.14,0,0,1,3,2.06l21.45,28.19C565.44,680,565.56,681.4,564.9,682.54ZM671.23,345.3A79.87,79.87,0,0,1,674.62,322a83.87,83.87,0,0,1,9.66-21,90.83,90.83,0,0,1,15-17.82,92.85,92.85,0,0,1,19.4-13.69,103.16,103.16,0,0,1,22.91-8.83,103.83,103.83,0,0,1,74,8.83A94.3,94.3,0,0,1,835,283.19,87.51,87.51,0,0,1,850,301a86.45,86.45,0,0,1,9.67,21,80.54,80.54,0,0,1,0,46.64A84.45,84.45,0,0,1,850,389.47a87.39,87.39,0,0,1-15,17.65,97.45,97.45,0,0,1-19.46,13.69,99.59,99.59,0,0,1-23,8.82,106.51,106.51,0,0,1-51,0,99.83,99.83,0,0,1-22.91-8.82,95.91,95.91,0,0,1-19.4-13.69,90.73,90.73,0,0,1-15-17.65,82,82,0,0,1-9.66-20.85A79.87,79.87,0,0,1,671.23,345.3Zm196,291.12a84.51,84.51,0,0,1-9.67,20.86,87.61,87.61,0,0,1-15,17.64,97.42,97.42,0,0,1-19.45,13.7,99.67,99.67,0,0,1-23,8.82,106.85,106.85,0,0,1-51,0,99.83,99.83,0,0,1-22.91-8.82,95.88,95.88,0,0,1-19.39-13.7,90.28,90.28,0,0,1-15-17.64,81.71,81.71,0,0,1-9.67-20.86,81.9,81.9,0,0,1,0-46.64,83.54,83.54,0,0,1,9.67-21,90.15,90.15,0,0,1,15-17.82,93.15,93.15,0,0,1,19.39-13.69,103.63,103.63,0,0,1,22.91-8.82,104.87,104.87,0,0,1,51,0,103.44,103.44,0,0,1,23,8.82A94.62,94.62,0,0,1,842.61,551a87.51,87.51,0,0,1,15,17.82,86.45,86.45,0,0,1,9.67,21,80.54,80.54,0,0,1,0,46.64Z" transform="translate(-328 -192)"/><path d="M331.77,782.9a1,1,0,0,1,.3-.71,1.14,1.14,0,0,1,.82-.29h7.39a1.23,1.23,0,0,1,.77.27,1,1,0,0,1,.38.73v24.8h13.73a1.14,1.14,0,0,1,.77.28.91.91,0,0,1,.32.75v6a1,1,0,0,1-.28.7,1.1,1.1,0,0,1-.81.34H332.87c-.73,0-1.1-.33-1.1-1Z" transform="translate(-328 -192)"/><path d="M379.56,798.88a15.88,15.88,0,0,1,.68-4.64,16.79,16.79,0,0,1,1.92-4.17,18,18,0,0,1,3-3.55A18.45,18.45,0,0,1,389,783.8a21,21,0,0,1,4.56-1.76,20.63,20.63,0,0,1,14.72,1.76,18.91,18.91,0,0,1,3.88,2.72,17.34,17.34,0,0,1,4.9,7.72,15.95,15.95,0,0,1,0,9.28,17.22,17.22,0,0,1-1.92,4.15,17.67,17.67,0,0,1-3,3.51,19.3,19.3,0,0,1-3.88,2.72,19.61,19.61,0,0,1-4.57,1.76,21.08,21.08,0,0,1-10.15,0A20.06,20.06,0,0,1,389,813.9a18.82,18.82,0,0,1-3.85-2.72,18.07,18.07,0,0,1-3-3.51,16.49,16.49,0,0,1-1.92-4.15A15.88,15.88,0,0,1,379.56,798.88Zm9.66,0a9,9,0,0,0,.7,3.53,8.63,8.63,0,0,0,2,2.86,9.15,9.15,0,0,0,3,1.92,10.05,10.05,0,0,0,3.78.69,10.25,10.25,0,0,0,3.81-.69,9.19,9.19,0,0,0,3-1.92,8.46,8.46,0,0,0,1.95-2.86,9.23,9.23,0,0,0,0-7,8.58,8.58,0,0,0-1.95-2.89,9.41,9.41,0,0,0-3-1.94,10.05,10.05,0,0,0-3.81-.7,9.86,9.86,0,0,0-3.78.7,9.36,9.36,0,0,0-3,1.94,8.75,8.75,0,0,0-2,2.89A9,9,0,0,0,389.22,798.86Z" transform="translate(-328 -192)"/><path d="M472.33,784.38a1.57,1.57,0,0,1,.63.59.89.89,0,0,1-.08.87l-4.22,5.47a1,1,0,0,1-.58.45,1.25,1.25,0,0,1-.77-.2,10,10,0,0,0-2.69-1.3,10.6,10.6,0,0,0-3.12-.45,9.88,9.88,0,0,0-3.77.7,9.21,9.21,0,0,0-3,1.94,8.81,8.81,0,0,0-2.64,6.38,8.72,8.72,0,0,0,2.64,6.35,9,9,0,0,0,3,1.93,9.89,9.89,0,0,0,3.77.71,10.47,10.47,0,0,0,3.14-.47,9.93,9.93,0,0,0,2.72-1.31,1.23,1.23,0,0,1,.75-.21,1,1,0,0,1,.6.41l4.27,5.61a.86.86,0,0,1,.08.85,1.76,1.76,0,0,1-.63.57,21.17,21.17,0,0,1-5.05,2.22,21,21,0,0,1-10.78.17A19.7,19.7,0,0,1,452,813.9a19.17,19.17,0,0,1-3.86-2.72,18.36,18.36,0,0,1-3-3.51,16.49,16.49,0,0,1-1.92-4.15,16.4,16.4,0,0,1,0-9.28,16.79,16.79,0,0,1,1.92-4.17,18.3,18.3,0,0,1,3-3.55A18.78,18.78,0,0,1,452,783.8a20.31,20.31,0,0,1,9.63-2.38,20.37,20.37,0,0,1,5.66.76A20.13,20.13,0,0,1,472.33,784.38Z" transform="translate(-328 -192)"/><path d="M510,782.81a.74.74,0,0,1,.16-.3,2.46,2.46,0,0,1,.34-.29A1.46,1.46,0,0,1,511,782a1.35,1.35,0,0,1,.42-.08h6.39a1.12,1.12,0,0,1,.72.24,3.2,3.2,0,0,1,.45.42l.63,1.3,13.1,30.87a.62.62,0,0,1-.08.74,1.26,1.26,0,0,1-.94.28h-7.17a1.64,1.64,0,0,1-.88-.19,1.29,1.29,0,0,1-.49-.65c-.33-.77-.66-1.55-1-2.31s-.64-1.54-.95-2.32H508l-1,2.32c-.33.76-.65,1.54-1,2.31a1.24,1.24,0,0,1-1.27.84h-7.36a1.32,1.32,0,0,1-.79-.22c-.21-.16-.24-.38-.11-.69Zm4.54,9.76c-.31.77-.63,1.61-1,2.5s-.64,1.8-1,2.72-.63,1.81-1,2.7-.64,1.72-1,2.49h7.66Z" transform="translate(-328 -192)"/><path d="M557,782.9a1,1,0,0,1,.3-.71,1.14,1.14,0,0,1,.82-.29h7.39a1.23,1.23,0,0,1,.77.27,1,1,0,0,1,.38.73v24.8h13.72a1.15,1.15,0,0,1,.78.28.94.94,0,0,1,.32.75v6a1,1,0,0,1-.29.7,1.09,1.09,0,0,1-.81.34H558.09c-.74,0-1.1-.33-1.1-1Z" transform="translate(-328 -192)"/><path d="M671.64,784.38a1.48,1.48,0,0,1,.62.59.87.87,0,0,1-.07.87L668,791.31a1,1,0,0,1-.58.45,1.25,1.25,0,0,1-.77-.2,10,10,0,0,0-2.69-1.3,10.6,10.6,0,0,0-3.12-.45,9.85,9.85,0,0,0-3.77.7,9.21,9.21,0,0,0-3,1.94,8.81,8.81,0,0,0-2.64,6.38,8.72,8.72,0,0,0,2.64,6.35,9,9,0,0,0,3,1.93,9.85,9.85,0,0,0,3.77.71,10.47,10.47,0,0,0,3.14-.47,9.93,9.93,0,0,0,2.72-1.31,1.23,1.23,0,0,1,.75-.21,1,1,0,0,1,.6.41l4.27,5.61a.83.83,0,0,1,.07.85,1.64,1.64,0,0,1-.62.57,21.17,21.17,0,0,1-5,2.22,21.07,21.07,0,0,1-10.79.17,19.8,19.8,0,0,1-4.55-1.76,19.17,19.17,0,0,1-3.86-2.72,18.36,18.36,0,0,1-3-3.51,16.49,16.49,0,0,1-1.92-4.15,16.4,16.4,0,0,1,0-9.28,16.79,16.79,0,0,1,1.92-4.17,18.3,18.3,0,0,1,3-3.55,18.78,18.78,0,0,1,3.86-2.72,20.23,20.23,0,0,1,9.63-2.38,20.37,20.37,0,0,1,5.66.76A20.13,20.13,0,0,1,671.64,784.38Z" transform="translate(-328 -192)"/><path d="M695,798.88a15.88,15.88,0,0,1,.67-4.64,16.79,16.79,0,0,1,1.92-4.17,18.27,18.27,0,0,1,6.85-6.27,20.61,20.61,0,0,1,19.28,0,19.12,19.12,0,0,1,3.87,2.72,17.61,17.61,0,0,1,3,3.55,16.79,16.79,0,0,1,1.92,4.17,15.95,15.95,0,0,1,0,9.28,16.49,16.49,0,0,1-1.92,4.15,17.67,17.67,0,0,1-3,3.51,19.52,19.52,0,0,1-3.87,2.72,20,20,0,0,1-4.57,1.76,21.12,21.12,0,0,1-10.16,0,19.8,19.8,0,0,1-4.55-1.76,18.89,18.89,0,0,1-3.86-2.72,18.42,18.42,0,0,1-3-3.51,16.49,16.49,0,0,1-1.92-4.15A15.88,15.88,0,0,1,695,798.88Zm9.65,0a9,9,0,0,0,.7,3.53,8.63,8.63,0,0,0,2,2.86,9.15,9.15,0,0,0,3,1.92,10.07,10.07,0,0,0,3.79.69,10.19,10.19,0,0,0,3.8-.69,9.19,9.19,0,0,0,3-1.92,8.63,8.63,0,0,0,2-2.86,9.35,9.35,0,0,0,0-7,8.75,8.75,0,0,0-2-2.89,9.41,9.41,0,0,0-3-1.94,10,10,0,0,0-3.8-.7,9.88,9.88,0,0,0-3.79.7,9.36,9.36,0,0,0-3,1.94,8.75,8.75,0,0,0-2,2.89A9,9,0,0,0,704.68,798.86Z" transform="translate(-328 -192)"/><path d="M759.72,783a1,1,0,0,1,.28-.75,1,1,0,0,1,.69-.3h23.88a1.2,1.2,0,0,1,.87.29,1.12,1.12,0,0,1,.28.8v5.64a1.14,1.14,0,0,1-.3.74,1.09,1.09,0,0,1-.87.35H769.38v7.07h11.2a1.31,1.31,0,0,1,.8.24.86.86,0,0,1,.33.76v5.45a1.18,1.18,0,0,1-.29.74,1,1,0,0,1-.79.35H769.38v10.44c0,.66-.39,1-1.15,1h-7.61a.88.88,0,0,1-.9-.95Z" transform="translate(-328 -192)"/><path d="M812.3,783a1,1,0,0,1,1-1.05h23.88a1.18,1.18,0,0,1,.86.29,1.12,1.12,0,0,1,.29.8v5.64a1.14,1.14,0,0,1-.3.74,1.09,1.09,0,0,1-.87.35H822v7.07h11.21a1.33,1.33,0,0,1,.8.24.88.88,0,0,1,.32.76v5.45a1.18,1.18,0,0,1-.29.74,1,1,0,0,1-.78.35H822v10.44c0,.66-.38,1-1.15,1H813.2a.88.88,0,0,1-.9-.95Z" transform="translate(-328 -192)"/><path d="M864.69,783a1,1,0,0,1,.29-.77,1.07,1.07,0,0,1,.8-.28h24.76a1.18,1.18,0,0,1,.85.29,1.09,1.09,0,0,1,.3.8v5.64a1.14,1.14,0,0,1-.3.74,1.09,1.09,0,0,1-.87.35H874.35v5.65h12.48a1.38,1.38,0,0,1,.78.21.74.74,0,0,1,.31.68v4.93a.91.91,0,0,1-.27.61,1,1,0,0,1-.8.3h-12.5V808h16.77c.75,0,1.12.35,1.12,1v5.73a.52.52,0,0,1-.2.41q-.1.63-1,.63H865.78a1.22,1.22,0,0,1-.79-.24.87.87,0,0,1-.3-.74Z" transform="translate(-328 -192)"/><path d="M918.6,783a1,1,0,0,1,.28-.77,1.09,1.09,0,0,1,.81-.28h24.76a1.18,1.18,0,0,1,.85.29,1.09,1.09,0,0,1,.3.8v5.64a1.14,1.14,0,0,1-.3.74,1.09,1.09,0,0,1-.87.35H928.26v5.65h12.47a1.39,1.39,0,0,1,.79.21.74.74,0,0,1,.31.68v4.93a.91.91,0,0,1-.27.61,1,1,0,0,1-.8.3h-12.5V808H945c.75,0,1.12.35,1.12,1v5.73a.56.56,0,0,1-.2.41q-.11.63-1,.63H919.69a1.2,1.2,0,0,1-.79-.24.87.87,0,0,1-.3-.74Z" transform="translate(-328 -192)"/></g></g></svg>